<svg xmlns="http://www.w3.org/2000/svg" viewBox="0 0 512 512" width="512" height="512" role="img" aria-label="CSM">
  <defs>
    <linearGradient id="o" x1="0.12" y1="0" x2="0.88" y2="1">
      <stop offset="0" stop-color="#e8845a"></stop>
      <stop offset="0.55" stop-color="#e27a48"></stop>
      <stop offset="1" stop-color="#d9622b"></stop>
    </linearGradient>
    <linearGradient id="c" x1="0" y1="0" x2="0" y2="1">
      <stop offset="0" stop-color="#342c26"></stop>
      <stop offset="1" stop-color="#2a2420"></stop>
    </linearGradient>
    <linearGradient id="p" x1="0" y1="0" x2="0" y2="1">
      <stop offset="0" stop-color="#f7f1e8"></stop>
      <stop offset="1" stop-color="#ebe2d4"></stop>
    </linearGradient>
    <filter id="s" x="-50%" y="-50%" width="200%" height="200%">
      <feDropShadow dx="0" dy="9" stdDeviation="11" flood-color="#2a2420" flood-opacity="0.24"></feDropShadow>
    </filter>
  </defs>
  <rect x="16" y="16" width="480" height="480" rx="104" fill="url(#p)"></rect>
  <rect x="16.5" y="16.5" width="479" height="479" rx="103.5" fill="none" stroke="#2a2420" stroke-opacity="0.07" stroke-width="1"></rect>
  <g transform="translate(256,256) scale(1.26) translate(-261,-252)">
    <path d="M250,140 H206 Q140,140 140,206 V306 Q140,372 206,372 H306 Q372,372 372,306 V262" fill="none" stroke="url(#c)" stroke-width="64" stroke-linecap="round" stroke-linejoin="round"></path>
    <rect x="259" y="97" width="158" height="158" rx="47" fill="#f2ebe1" transform="rotate(-9 338 176)"></rect>
    <rect x="268" y="106" width="140" height="140" rx="40" fill="url(#o)" filter="url(#s)" transform="rotate(-9 338 176)"></rect>
  </g>
</svg>